<?xml version="1.0" encoding="UTF-8"?>
<svg version="1.1" xmlns="http://www.w3.org/2000/svg" width="355" height="396">
<path d="M0 0 C7.11148343 -0.30766817 14.22121824 -0.51577549 21.33789062 -0.65917969 C23.75130307 -0.71903232 26.16428974 -0.80055218 28.57617188 -0.90527344 C42.00314552 -1.47308078 52.59586442 -1.82203895 63.12548828 7.33538818 C64.23839633 8.37151228 65.33778417 9.42240029 66.42134094 10.48918152 C68.90729917 12.86830931 71.62589648 14.87029727 74.375 16.9375 C75.41785156 17.74316406 76.46070313 18.54882812 77.53515625 19.37890625 C82.32840215 23.03605867 87.24131245 26.52899152 92.13842773 30.04492188 C97.77840797 34.10015837 103.35232316 38.234224 108.89868164 42.41625977 C114.77544119 46.84385646 120.6994897 51.20524764 126.63012695 55.56030273 C130.88281016 58.6880743 135.11986183 61.83473038 139.3359375 65.01171875 C140.21991211 65.67776123 141.10388672 66.34380371 142.01464844 67.0300293 C143.69928666 68.30138599 145.38234839 69.57483562 147.06347656 70.85083008 C147.83916992 71.43630615 148.61486328 72.02178223 149.4140625 72.625 C150.54207275 73.50418091 150.54207275 73.50418091 151.69287109 74.40112305 C153.94780617 76.08004389 153.94780617 76.08004389 156.54541016 77.07739258 C159.50353119 78.43015261 161.02856285 79.38370538 163 82 C164.68689778 88.35582356 164.21102129 95.17138744 164.125 101.6875 C164.13665971 103.5137015 164.15224444 105.33988242 164.171875 107.16601562 C164.2535177 120.23944691 164.2535177 120.23944691 163 124 C158.11812275 122.42580542 154.56038808 119.59803723 150.5625 116.5 C149.13125619 115.40748006 147.69894515 114.31635697 146.265625 113.2265625 C145.54955078 112.68161133 144.83347656 112.13666016 144.09570312 111.57519531 C141.04360701 109.28114544 137.93305251 107.07452393 134.8125 104.875 C130.29449246 101.68087374 125.86693516 98.39768051 121.5 95 C116.53976364 91.14203839 111.48648154 87.44515755 106.36010742 83.81152344 C99.51290536 78.9565253 92.75739589 73.97888128 86 69 C84.49869902 67.89452976 82.99739689 66.78906106 81.49609375 65.68359375 C78.3117059 63.33831505 75.12826303 60.99176016 71.9453125 58.64453125 C68.54666503 56.13865674 65.14531745 53.63650215 61.7421875 51.13671875 C60.8852832 50.50677002 60.02837891 49.87682129 59.14550781 49.2277832 C57.50744302 48.02366913 55.86880286 46.82033726 54.22949219 45.61791992 C53.48602539 45.07111572 52.74255859 44.52431152 51.9765625 43.9609375 C51.27950195 43.45014648 50.58244141 42.93935547 49.86425781 42.41308594 C48.3025734 41.22934715 46.80935988 39.95600763 45.3359375 38.6640625 C42.54386213 36.67505898 40.35616409 36.46567136 37 36 C35.15023432 96.25643876 35.15023432 96.25643876 46.984375 154.84057617 C48.88051642 160.73912572 49.25553241 166.6100179 49.5625 172.75 C49.6049585 173.56895752 49.64741699 174.38791504 49.69116211 175.23168945 C50.09936308 183.82197904 50.09244614 192.402509 50 201 C40.07795858 197.39522955 31.39825322 189.92433787 22.84277344 183.82861328 C22.18825195 183.36310059 21.53373047 182.89758789 20.859375 182.41796875 C20.18592041 181.89399506 19.51246582 181.37002136 18.81860352 180.83016968 C16.43853999 179.28475186 14.70130243 178.49927591 12.0803833 177.58972168 C6.86103287 175.44559729 2.9523196 172.91282223 0 168 C-2.92526376 156.72980668 -1.91196009 144.49826126 -1.62230301 132.96057916 C-1.52182709 128.28179916 -1.51284894 123.60283383 -1.49389648 118.92314148 C-1.44429431 110.07506988 -1.31318825 101.23018627 -1.15230465 92.38351458 C-0.97305123 82.30651528 -0.88539337 72.22935825 -0.80517769 62.15115988 C-0.63823024 41.43233158 -0.35706879 20.7163671 0 0 Z " fill="#F8F8F9" transform="translate(69,96)"/>
<path d="M0 0 C0.87760986 -0.00315216 1.75521973 -0.00630432 2.65942383 -0.009552 C3.61357178 -0.00752777 4.56771973 -0.00550354 5.55078125 -0.00341797 C6.52362061 -0.00437469 7.49645996 -0.00533142 8.4987793 -0.00631714 C10.56005925 -0.00699905 12.62134133 -0.00514399 14.68261719 -0.00097656 C17.84965813 0.00437153 21.01655725 -0.00092119 24.18359375 -0.00732422 C26.1809899 -0.00666344 28.17838596 -0.00538228 30.17578125 -0.00341797 C31.1299292 -0.0054422 32.08407715 -0.00746643 33.06713867 -0.009552 C33.94474854 -0.00639984 34.8223584 -0.00324768 35.7265625 0 C36.50298096 0.00079559 37.27939941 0.00159119 38.0793457 0.00241089 C39.86328125 0.12939453 39.86328125 0.12939453 40.86328125 1.12939453 C41.03266926 3.25508041 41.13214076 5.38634324 41.20559692 7.51750183 C41.24180407 8.53068032 41.24180407 8.53068032 41.27874267 9.56432706 C41.35813654 11.84522552 41.42963219 14.12629195 41.50048828 16.4074707 C41.52675041 17.20422966 41.55301254 18.00098862 41.5800705 18.82189178 C42.09989733 34.60333987 42.41223988 50.38833386 42.65521431 66.1762495 C42.81378492 76.22902345 43.03361369 86.27280533 43.40771484 96.32006836 C43.73421064 105.09137404 43.94089411 113.85629553 44.00887191 122.63354856 C44.04874227 127.27539236 44.14396419 131.89957297 44.38293839 136.53578758 C45.73668044 163.88996838 45.73668044 163.88996838 39.39178753 172.01335192 C31.68891774 179.97761635 21.70495429 185.13821232 11.89477158 190.03647804 C6.21795575 192.90270899 1.05037317 196.46366291 -4.13671875 200.12939453 C-9.99977422 196.98202473 -15.16993737 193.23044689 -20.44921875 189.19189453 C-27.00466605 184.22608583 -33.58519643 179.30641721 -40.26171875 174.50439453 C-40.99632324 173.97587891 -41.73092773 173.44736328 -42.48779297 172.90283203 C-43.9659084 171.84058874 -45.44442208 170.77889938 -46.92333984 169.71777344 C-50.64405648 167.04768934 -54.35995046 164.37093944 -58.07421875 161.69189453 C-58.81357666 161.15878662 -59.55293457 160.62567871 -60.31469727 160.07641602 C-65.80415708 156.11064883 -71.25553494 152.0951763 -76.69921875 148.06689453 C-84.76297143 142.10347196 -92.92715375 136.2964628 -101.13769531 130.53759766 C-104.94162832 127.85793405 -108.7206914 125.14327121 -112.49731445 122.42529297 C-115.05899621 120.58759042 -117.44177375 118.98214451 -120.29077148 117.60693359 C-123.13671875 115.12939453 -123.13671875 115.12939453 -123.66111755 113.11108398 C-123.83297309 110.49843815 -123.81074931 107.94941338 -123.72265625 105.33251953 C-123.71416656 104.38374939 -123.70567688 103.43497925 -123.69692993 102.4574585 C-123.66337075 99.43027674 -123.58808657 96.40576949 -123.51171875 93.37939453 C-123.48162241 91.32604761 -123.45424603 89.2726589 -123.4296875 87.21923828 C-123.36357095 82.18826155 -123.26003129 77.15928127 -123.13671875 72.12939453 C-120.46572291 73.4421202 -118.02285089 74.8111586 -115.58984375 76.52783203 C-114.91832275 77.0008374 -114.24680176 77.47384277 -113.55493164 77.96118164 C-112.83942139 78.47044189 -112.12391113 78.97970215 -111.38671875 79.50439453 C-110.63447021 80.03750244 -109.88222168 80.57061035 -109.10717773 81.11987305 C-103.41067418 85.17637474 -97.80392536 89.34263506 -92.22509766 93.55883789 C-85.03799003 98.9820927 -77.73053374 104.23473489 -70.41894531 109.48828125 C-65.90407242 112.73485544 -61.39872298 115.99463158 -56.89160156 119.25195312 C-53.11967655 121.97721402 -49.3454747 124.69920219 -45.56640625 127.41455078 C-38.90145001 132.20801696 -32.25140358 137.01462262 -25.6940918 141.95483398 C-24.34133788 142.9736935 -22.98609502 143.98925829 -21.62817383 145.0012207 C-18.78311626 147.12180738 -15.98148666 149.2564216 -13.234375 151.50439453 C-12.39777344 152.16439453 -11.56117188 152.82439453 -10.69921875 153.50439453 C-9.68021484 154.35130859 -9.68021484 154.35130859 -8.640625 155.21533203 C-5.67909557 156.29645198 -4.49653433 155.92063738 -1.48022461 155.18652344 C-0.66750595 154.99265045 0.14521271 154.79877747 0.9825592 154.59902954 C1.91351662 154.36656021 1.91351662 154.36656021 2.86328125 154.12939453 C2.80153208 144.28742472 2.72405222 134.44570837 2.62756634 124.6040144 C2.58321463 120.03200802 2.54388576 115.46008359 2.5168457 110.88793945 C2.49045543 106.4592044 2.44981479 102.03079101 2.40009499 97.60225868 C2.38366361 95.92939632 2.37200422 94.25647865 2.36566734 92.58354759 C2.32166723 82.01559626 1.44541519 71.93581152 -0.40919495 61.52693176 C-1.73421933 53.95977482 -2.19453031 46.28303614 -2.76171875 38.62939453 C-2.88672239 37.00925248 -3.01205086 35.38913545 -3.13769531 33.76904297 C-3.78622545 25.31064936 -4.40433453 16.84904582 -4.88671875 8.37939453 C-4.93135254 7.62464844 -4.97598633 6.86990234 -5.02197266 6.09228516 C-5.10348486 4.43955503 -5.12796364 2.78411036 -5.13671875 1.12939453 C-3.59170424 -0.41561997 -2.15011655 0.00220322 0 0 Z " fill="#F7F7F7" transform="translate(248.13671875,96.87060546875)"/>
</svg>
